# xmcd
#
# Track frame offsets:
#  150
#  20105
#  37703
#  53594
#  71546
#  90386
#  106887
#  124630
#  140202
#  157592
#  179945
#  195851
#  210962
#  227430
#  243536
#
# Disc length: 3577 seconds
#
# Revision: 0
# Processed by: cddbd v1.5.1PL2 Copyright (c) Steve Scherf et al.
# Submitted via: Collectorz.com_Music_Collector 6.10
#
DISCID=ba0df70f
DTITLE=Twentysevens - Songs From The Middle Ages
DYEAR=2006
DGENRE=Blues Roots
TTITLE0=Crowded With Mist Again
TTITLE1=Once Upon A Time
TTITLE2=Music Is The God
TTITLE3=Mama's Farming Boy Blues
TTITLE4=Dancing Like A Diplomat
TTITLE5=Truth For Hire
TTITLE6=War Torn
TTITLE7=In The Shade
TTITLE8=Whatever Happened To Walter Mitty?
TTITLE9=Love Is A Dangerous Game
TTITLE10=(I Can't Get No) Satisfaction
TTITLE11=Hard Nut
TTITLE12=Heartless
TTITLE13=Sunshine Of Your Love
TTITLE14=The Message Of The Night
EXTD=
EXTT0=
EXTT1=
EXTT2=
EXTT3=
EXTT4=
EXTT5=
EXTT6=
EXTT7=
EXTT8=
EXTT9=
EXTT10=
EXTT11=
EXTT12=
EXTT13=
EXTT14=
PLAYORDER=
